<mxfile host="app.diagrams.net" modified="2023-08-11T09:12:10.359Z" agent="Mozilla/5.0 (X11; Linux x86_64) AppleWebKit/537.36 (KHTML, like Gecko) Chrome/109.0.0.0 Safari/537.36" etag="n-aqPt9TjbIQ-nQ1tg65" version="21.6.3" type="github">
  <diagram name="Page-1" id="ymnBsTnLx3Ux8fwU-xB4">
    <mxGraphModel dx="1354" dy="775" grid="1" gridSize="10" guides="1" tooltips="1" connect="1" arrows="1" fold="1" page="1" pageScale="1" pageWidth="850" pageHeight="1100" math="0" shadow="0">
      <root>
        <mxCell id="0" />
        <mxCell id="1" parent="0" />
        <mxCell id="bD8jC1XGivE6zrcXYBOk-2" value="d: dpi_pre_done&lt;br&gt;s: sof" style="rounded=0;whiteSpace=wrap;html=1;" vertex="1" parent="1">
          <mxGeometry x="20" y="70" width="120" height="60" as="geometry" />
        </mxCell>
        <mxCell id="bD8jC1XGivE6zrcXYBOk-3" value="" style="endArrow=classic;html=1;rounded=0;endFill=1;" edge="1" parent="1">
          <mxGeometry width="50" height="50" relative="1" as="geometry">
            <mxPoint x="20" y="380" as="sourcePoint" />
            <mxPoint x="1040" y="380" as="targetPoint" />
          </mxGeometry>
        </mxCell>
        <mxCell id="bD8jC1XGivE6zrcXYBOk-4" value="d" style="shape=umlLifeline;perimeter=lifelinePerimeter;whiteSpace=wrap;html=1;container=1;dropTarget=0;collapsible=0;recursiveResize=0;outlineConnect=0;portConstraint=eastwest;newEdgeStyle={&quot;edgeStyle&quot;:&quot;elbowEdgeStyle&quot;,&quot;elbow&quot;:&quot;vertical&quot;,&quot;curved&quot;:0,&quot;rounded&quot;:0};" vertex="1" parent="1">
          <mxGeometry x="80" y="280" width="50" height="100" as="geometry" />
        </mxCell>
        <mxCell id="bD8jC1XGivE6zrcXYBOk-5" value="s" style="shape=umlLifeline;perimeter=lifelinePerimeter;whiteSpace=wrap;html=1;container=1;dropTarget=0;collapsible=0;recursiveResize=0;outlineConnect=0;portConstraint=eastwest;newEdgeStyle={&quot;edgeStyle&quot;:&quot;elbowEdgeStyle&quot;,&quot;elbow&quot;:&quot;vertical&quot;,&quot;curved&quot;:0,&quot;rounded&quot;:0};" vertex="1" parent="1">
          <mxGeometry x="210" y="280" width="50" height="100" as="geometry" />
        </mxCell>
        <mxCell id="bD8jC1XGivE6zrcXYBOk-7" value="d" style="shape=umlLifeline;perimeter=lifelinePerimeter;whiteSpace=wrap;html=1;container=1;dropTarget=0;collapsible=0;recursiveResize=0;outlineConnect=0;portConstraint=eastwest;newEdgeStyle={&quot;edgeStyle&quot;:&quot;elbowEdgeStyle&quot;,&quot;elbow&quot;:&quot;vertical&quot;,&quot;curved&quot;:0,&quot;rounded&quot;:0};" vertex="1" parent="1">
          <mxGeometry x="340" y="280" width="50" height="100" as="geometry" />
        </mxCell>
        <mxCell id="bD8jC1XGivE6zrcXYBOk-9" value="s" style="shape=umlLifeline;perimeter=lifelinePerimeter;whiteSpace=wrap;html=1;container=1;dropTarget=0;collapsible=0;recursiveResize=0;outlineConnect=0;portConstraint=eastwest;newEdgeStyle={&quot;edgeStyle&quot;:&quot;elbowEdgeStyle&quot;,&quot;elbow&quot;:&quot;vertical&quot;,&quot;curved&quot;:0,&quot;rounded&quot;:0};" vertex="1" parent="1">
          <mxGeometry x="470" y="280" width="50" height="100" as="geometry" />
        </mxCell>
        <mxCell id="bD8jC1XGivE6zrcXYBOk-11" value="d" style="shape=umlLifeline;perimeter=lifelinePerimeter;whiteSpace=wrap;html=1;container=1;dropTarget=0;collapsible=0;recursiveResize=0;outlineConnect=0;portConstraint=eastwest;newEdgeStyle={&quot;edgeStyle&quot;:&quot;elbowEdgeStyle&quot;,&quot;elbow&quot;:&quot;vertical&quot;,&quot;curved&quot;:0,&quot;rounded&quot;:0};" vertex="1" parent="1">
          <mxGeometry x="600" y="280" width="50" height="100" as="geometry" />
        </mxCell>
        <mxCell id="bD8jC1XGivE6zrcXYBOk-13" value="s" style="shape=umlLifeline;perimeter=lifelinePerimeter;whiteSpace=wrap;html=1;container=1;dropTarget=0;collapsible=0;recursiveResize=0;outlineConnect=0;portConstraint=eastwest;newEdgeStyle={&quot;edgeStyle&quot;:&quot;elbowEdgeStyle&quot;,&quot;elbow&quot;:&quot;vertical&quot;,&quot;curved&quot;:0,&quot;rounded&quot;:0};" vertex="1" parent="1">
          <mxGeometry x="730" y="280" width="50" height="100" as="geometry" />
        </mxCell>
        <mxCell id="bD8jC1XGivE6zrcXYBOk-17" value="" style="endArrow=none;dashed=1;html=1;dashPattern=1 3;strokeWidth=2;rounded=0;exitX=0.5;exitY=0;exitDx=0;exitDy=0;" edge="1" parent="1" source="bD8jC1XGivE6zrcXYBOk-18">
          <mxGeometry width="50" height="50" relative="1" as="geometry">
            <mxPoint x="150" y="520" as="sourcePoint" />
            <mxPoint x="149.5" y="380" as="targetPoint" />
          </mxGeometry>
        </mxCell>
        <mxCell id="bD8jC1XGivE6zrcXYBOk-18" value="vo中断处理&lt;br&gt;dpi_pre_done_handler" style="rounded=0;whiteSpace=wrap;html=1;" vertex="1" parent="1">
          <mxGeometry x="80" y="430" width="140" height="60" as="geometry" />
        </mxCell>
        <mxCell id="bD8jC1XGivE6zrcXYBOk-19" value="" style="endArrow=none;dashed=1;html=1;dashPattern=1 3;strokeWidth=2;rounded=0;exitX=0.5;exitY=0;exitDx=0;exitDy=0;" edge="1" parent="1" source="bD8jC1XGivE6zrcXYBOk-20">
          <mxGeometry width="50" height="50" relative="1" as="geometry">
            <mxPoint x="300" y="520" as="sourcePoint" />
            <mxPoint x="299.5" y="380" as="targetPoint" />
          </mxGeometry>
        </mxCell>
        <mxCell id="bD8jC1XGivE6zrcXYBOk-20" value="vo中断处理&lt;br&gt;sof_done_handler" style="rounded=0;whiteSpace=wrap;html=1;" vertex="1" parent="1">
          <mxGeometry x="230" y="430" width="140" height="60" as="geometry" />
        </mxCell>
        <mxCell id="bD8jC1XGivE6zrcXYBOk-21" value="正常情况：" style="text;html=1;strokeColor=none;fillColor=none;align=center;verticalAlign=middle;whiteSpace=wrap;rounded=0;" vertex="1" parent="1">
          <mxGeometry x="20" y="190" width="80" height="30" as="geometry" />
        </mxCell>
        <mxCell id="bD8jC1XGivE6zrcXYBOk-22" value="" style="endArrow=none;dashed=1;html=1;dashPattern=1 3;strokeWidth=2;rounded=0;exitX=0.5;exitY=0;exitDx=0;exitDy=0;" edge="1" parent="1" source="bD8jC1XGivE6zrcXYBOk-23">
          <mxGeometry width="50" height="50" relative="1" as="geometry">
            <mxPoint x="450" y="520" as="sourcePoint" />
            <mxPoint x="449.5" y="380" as="targetPoint" />
          </mxGeometry>
        </mxCell>
        <mxCell id="bD8jC1XGivE6zrcXYBOk-23" value="vo中断处理&lt;br&gt;dpi_pre_done_handler" style="rounded=0;whiteSpace=wrap;html=1;" vertex="1" parent="1">
          <mxGeometry x="380" y="430" width="140" height="60" as="geometry" />
        </mxCell>
        <mxCell id="bD8jC1XGivE6zrcXYBOk-24" value="" style="endArrow=classic;html=1;rounded=0;endFill=1;" edge="1" parent="1">
          <mxGeometry width="50" height="50" relative="1" as="geometry">
            <mxPoint x="20" y="730" as="sourcePoint" />
            <mxPoint x="2110" y="730" as="targetPoint" />
          </mxGeometry>
        </mxCell>
        <mxCell id="bD8jC1XGivE6zrcXYBOk-25" value="d" style="shape=umlLifeline;perimeter=lifelinePerimeter;whiteSpace=wrap;html=1;container=1;dropTarget=0;collapsible=0;recursiveResize=0;outlineConnect=0;portConstraint=eastwest;newEdgeStyle={&quot;edgeStyle&quot;:&quot;elbowEdgeStyle&quot;,&quot;elbow&quot;:&quot;vertical&quot;,&quot;curved&quot;:0,&quot;rounded&quot;:0};" vertex="1" parent="1">
          <mxGeometry x="80" y="630" width="50" height="100" as="geometry" />
        </mxCell>
        <mxCell id="bD8jC1XGivE6zrcXYBOk-26" value="s" style="shape=umlLifeline;perimeter=lifelinePerimeter;whiteSpace=wrap;html=1;container=1;dropTarget=0;collapsible=0;recursiveResize=0;outlineConnect=0;portConstraint=eastwest;newEdgeStyle={&quot;edgeStyle&quot;:&quot;elbowEdgeStyle&quot;,&quot;elbow&quot;:&quot;vertical&quot;,&quot;curved&quot;:0,&quot;rounded&quot;:0};" vertex="1" parent="1">
          <mxGeometry x="170" y="630" width="50" height="100" as="geometry" />
        </mxCell>
        <mxCell id="bD8jC1XGivE6zrcXYBOk-27" value="d" style="shape=umlLifeline;perimeter=lifelinePerimeter;whiteSpace=wrap;html=1;container=1;dropTarget=0;collapsible=0;recursiveResize=0;outlineConnect=0;portConstraint=eastwest;newEdgeStyle={&quot;edgeStyle&quot;:&quot;elbowEdgeStyle&quot;,&quot;elbow&quot;:&quot;vertical&quot;,&quot;curved&quot;:0,&quot;rounded&quot;:0};" vertex="1" parent="1">
          <mxGeometry x="340" y="630" width="50" height="100" as="geometry" />
        </mxCell>
        <mxCell id="bD8jC1XGivE6zrcXYBOk-28" value="s" style="shape=umlLifeline;perimeter=lifelinePerimeter;whiteSpace=wrap;html=1;container=1;dropTarget=0;collapsible=0;recursiveResize=0;outlineConnect=0;portConstraint=eastwest;newEdgeStyle={&quot;edgeStyle&quot;:&quot;elbowEdgeStyle&quot;,&quot;elbow&quot;:&quot;vertical&quot;,&quot;curved&quot;:0,&quot;rounded&quot;:0};" vertex="1" parent="1">
          <mxGeometry x="430" y="630" width="50" height="100" as="geometry" />
        </mxCell>
        <mxCell id="bD8jC1XGivE6zrcXYBOk-29" value="d" style="shape=umlLifeline;perimeter=lifelinePerimeter;whiteSpace=wrap;html=1;container=1;dropTarget=0;collapsible=0;recursiveResize=0;outlineConnect=0;portConstraint=eastwest;newEdgeStyle={&quot;edgeStyle&quot;:&quot;elbowEdgeStyle&quot;,&quot;elbow&quot;:&quot;vertical&quot;,&quot;curved&quot;:0,&quot;rounded&quot;:0};" vertex="1" parent="1">
          <mxGeometry x="600" y="630" width="50" height="100" as="geometry" />
        </mxCell>
        <mxCell id="bD8jC1XGivE6zrcXYBOk-30" value="s" style="shape=umlLifeline;perimeter=lifelinePerimeter;whiteSpace=wrap;html=1;container=1;dropTarget=0;collapsible=0;recursiveResize=0;outlineConnect=0;portConstraint=eastwest;newEdgeStyle={&quot;edgeStyle&quot;:&quot;elbowEdgeStyle&quot;,&quot;elbow&quot;:&quot;vertical&quot;,&quot;curved&quot;:0,&quot;rounded&quot;:0};" vertex="1" parent="1">
          <mxGeometry x="690" y="630" width="50" height="100" as="geometry" />
        </mxCell>
        <mxCell id="bD8jC1XGivE6zrcXYBOk-31" value="" style="endArrow=none;dashed=1;html=1;dashPattern=1 3;strokeWidth=2;rounded=0;exitX=0.5;exitY=0;exitDx=0;exitDy=0;" edge="1" parent="1" source="bD8jC1XGivE6zrcXYBOk-32">
          <mxGeometry width="50" height="50" relative="1" as="geometry">
            <mxPoint x="106" y="870" as="sourcePoint" />
            <mxPoint x="105.5" y="730" as="targetPoint" />
          </mxGeometry>
        </mxCell>
        <mxCell id="bD8jC1XGivE6zrcXYBOk-32" value="vo中断处理&lt;br&gt;d" style="rounded=0;whiteSpace=wrap;html=1;" vertex="1" parent="1">
          <mxGeometry x="70" y="780" width="70" height="60" as="geometry" />
        </mxCell>
        <mxCell id="bD8jC1XGivE6zrcXYBOk-35" value="异常情况1：" style="text;html=1;strokeColor=none;fillColor=none;align=center;verticalAlign=middle;whiteSpace=wrap;rounded=0;" vertex="1" parent="1">
          <mxGeometry x="20" y="540" width="80" height="30" as="geometry" />
        </mxCell>
        <mxCell id="bD8jC1XGivE6zrcXYBOk-38" value="d" style="shape=umlLifeline;perimeter=lifelinePerimeter;whiteSpace=wrap;html=1;container=1;dropTarget=0;collapsible=0;recursiveResize=0;outlineConnect=0;portConstraint=eastwest;newEdgeStyle={&quot;edgeStyle&quot;:&quot;elbowEdgeStyle&quot;,&quot;elbow&quot;:&quot;vertical&quot;,&quot;curved&quot;:0,&quot;rounded&quot;:0};" vertex="1" parent="1">
          <mxGeometry x="860" y="630" width="50" height="100" as="geometry" />
        </mxCell>
        <mxCell id="bD8jC1XGivE6zrcXYBOk-40" value="s" style="shape=umlLifeline;perimeter=lifelinePerimeter;whiteSpace=wrap;html=1;container=1;dropTarget=0;collapsible=0;recursiveResize=0;outlineConnect=0;portConstraint=eastwest;newEdgeStyle={&quot;edgeStyle&quot;:&quot;elbowEdgeStyle&quot;,&quot;elbow&quot;:&quot;vertical&quot;,&quot;curved&quot;:0,&quot;rounded&quot;:0};" vertex="1" parent="1">
          <mxGeometry x="940" y="630" width="50" height="100" as="geometry" />
        </mxCell>
        <mxCell id="bD8jC1XGivE6zrcXYBOk-42" value="" style="endArrow=none;dashed=1;html=1;dashPattern=1 3;strokeWidth=2;rounded=0;exitX=0.5;exitY=0;exitDx=0;exitDy=0;" edge="1" parent="1" source="bD8jC1XGivE6zrcXYBOk-43">
          <mxGeometry width="50" height="50" relative="1" as="geometry">
            <mxPoint x="196" y="870" as="sourcePoint" />
            <mxPoint x="195.5" y="730" as="targetPoint" />
          </mxGeometry>
        </mxCell>
        <mxCell id="bD8jC1XGivE6zrcXYBOk-43" value="vo中断处理&lt;br&gt;s" style="rounded=0;whiteSpace=wrap;html=1;" vertex="1" parent="1">
          <mxGeometry x="160" y="780" width="70" height="60" as="geometry" />
        </mxCell>
        <mxCell id="bD8jC1XGivE6zrcXYBOk-44" value="" style="endArrow=none;dashed=1;html=1;dashPattern=1 3;strokeWidth=2;rounded=0;exitX=0.5;exitY=0;exitDx=0;exitDy=0;" edge="1" parent="1" source="bD8jC1XGivE6zrcXYBOk-45">
          <mxGeometry width="50" height="50" relative="1" as="geometry">
            <mxPoint x="1056" y="870" as="sourcePoint" />
            <mxPoint x="1055.5" y="730" as="targetPoint" />
          </mxGeometry>
        </mxCell>
        <mxCell id="bD8jC1XGivE6zrcXYBOk-45" value="vo中断处理&lt;br&gt;s&lt;br&gt;d" style="rounded=0;whiteSpace=wrap;html=1;" vertex="1" parent="1">
          <mxGeometry x="1020" y="780" width="70" height="60" as="geometry" />
        </mxCell>
        <mxCell id="bD8jC1XGivE6zrcXYBOk-46" value="d" style="shape=umlLifeline;perimeter=lifelinePerimeter;whiteSpace=wrap;html=1;container=1;dropTarget=0;collapsible=0;recursiveResize=0;outlineConnect=0;portConstraint=eastwest;newEdgeStyle={&quot;edgeStyle&quot;:&quot;elbowEdgeStyle&quot;,&quot;elbow&quot;:&quot;vertical&quot;,&quot;curved&quot;:0,&quot;rounded&quot;:0};" vertex="1" parent="1">
          <mxGeometry x="1120" y="630" width="50" height="100" as="geometry" />
        </mxCell>
        <mxCell id="bD8jC1XGivE6zrcXYBOk-47" value="s" style="shape=umlLifeline;perimeter=lifelinePerimeter;whiteSpace=wrap;html=1;container=1;dropTarget=0;collapsible=0;recursiveResize=0;outlineConnect=0;portConstraint=eastwest;newEdgeStyle={&quot;edgeStyle&quot;:&quot;elbowEdgeStyle&quot;,&quot;elbow&quot;:&quot;vertical&quot;,&quot;curved&quot;:0,&quot;rounded&quot;:0};" vertex="1" parent="1">
          <mxGeometry x="1200" y="630" width="50" height="100" as="geometry" />
        </mxCell>
        <mxCell id="bD8jC1XGivE6zrcXYBOk-48" value="d" style="shape=umlLifeline;perimeter=lifelinePerimeter;whiteSpace=wrap;html=1;container=1;dropTarget=0;collapsible=0;recursiveResize=0;outlineConnect=0;portConstraint=eastwest;newEdgeStyle={&quot;edgeStyle&quot;:&quot;elbowEdgeStyle&quot;,&quot;elbow&quot;:&quot;vertical&quot;,&quot;curved&quot;:0,&quot;rounded&quot;:0};" vertex="1" parent="1">
          <mxGeometry x="1640" y="630" width="50" height="100" as="geometry" />
        </mxCell>
        <mxCell id="bD8jC1XGivE6zrcXYBOk-49" value="s" style="shape=umlLifeline;perimeter=lifelinePerimeter;whiteSpace=wrap;html=1;container=1;dropTarget=0;collapsible=0;recursiveResize=0;outlineConnect=0;portConstraint=eastwest;newEdgeStyle={&quot;edgeStyle&quot;:&quot;elbowEdgeStyle&quot;,&quot;elbow&quot;:&quot;vertical&quot;,&quot;curved&quot;:0,&quot;rounded&quot;:0};" vertex="1" parent="1">
          <mxGeometry x="1720" y="630" width="50" height="100" as="geometry" />
        </mxCell>
        <mxCell id="bD8jC1XGivE6zrcXYBOk-50" value="" style="endArrow=none;dashed=1;html=1;dashPattern=1 3;strokeWidth=2;rounded=0;exitX=0.5;exitY=0;exitDx=0;exitDy=0;" edge="1" parent="1" source="bD8jC1XGivE6zrcXYBOk-51">
          <mxGeometry width="50" height="50" relative="1" as="geometry">
            <mxPoint x="1746" y="870" as="sourcePoint" />
            <mxPoint x="1745.5" y="730" as="targetPoint" />
          </mxGeometry>
        </mxCell>
        <mxCell id="bD8jC1XGivE6zrcXYBOk-51" value="vo中断处理&lt;br&gt;s" style="rounded=0;whiteSpace=wrap;html=1;" vertex="1" parent="1">
          <mxGeometry x="1710" y="780" width="70" height="60" as="geometry" />
        </mxCell>
        <mxCell id="bD8jC1XGivE6zrcXYBOk-52" value="" style="endArrow=none;dashed=1;html=1;dashPattern=1 3;strokeWidth=2;rounded=0;exitX=0.5;exitY=0;exitDx=0;exitDy=0;" edge="1" parent="1" source="bD8jC1XGivE6zrcXYBOk-53">
          <mxGeometry width="50" height="50" relative="1" as="geometry">
            <mxPoint x="1666" y="870" as="sourcePoint" />
            <mxPoint x="1665.5" y="730" as="targetPoint" />
          </mxGeometry>
        </mxCell>
        <mxCell id="bD8jC1XGivE6zrcXYBOk-53" value="vo中断处理&lt;br&gt;d" style="rounded=0;whiteSpace=wrap;html=1;" vertex="1" parent="1">
          <mxGeometry x="1630" y="780" width="70" height="60" as="geometry" />
        </mxCell>
        <mxCell id="bD8jC1XGivE6zrcXYBOk-54" value="" style="endArrow=none;dashed=1;html=1;dashPattern=1 3;strokeWidth=2;rounded=0;exitX=0.5;exitY=0;exitDx=0;exitDy=0;" edge="1" parent="1" source="bD8jC1XGivE6zrcXYBOk-55">
          <mxGeometry width="50" height="50" relative="1" as="geometry">
            <mxPoint x="1556" y="870" as="sourcePoint" />
            <mxPoint x="1555.5" y="730" as="targetPoint" />
          </mxGeometry>
        </mxCell>
        <mxCell id="bD8jC1XGivE6zrcXYBOk-55" value="vo中断处理&lt;br&gt;s&lt;br&gt;d" style="rounded=0;whiteSpace=wrap;html=1;" vertex="1" parent="1">
          <mxGeometry x="1520" y="780" width="70" height="60" as="geometry" />
        </mxCell>
        <mxCell id="bD8jC1XGivE6zrcXYBOk-56" value="d" style="shape=umlLifeline;perimeter=lifelinePerimeter;whiteSpace=wrap;html=1;container=1;dropTarget=0;collapsible=0;recursiveResize=0;outlineConnect=0;portConstraint=eastwest;newEdgeStyle={&quot;edgeStyle&quot;:&quot;elbowEdgeStyle&quot;,&quot;elbow&quot;:&quot;vertical&quot;,&quot;curved&quot;:0,&quot;rounded&quot;:0};" vertex="1" parent="1">
          <mxGeometry x="1380" y="630" width="50" height="100" as="geometry" />
        </mxCell>
        <mxCell id="bD8jC1XGivE6zrcXYBOk-57" value="s" style="shape=umlLifeline;perimeter=lifelinePerimeter;whiteSpace=wrap;html=1;container=1;dropTarget=0;collapsible=0;recursiveResize=0;outlineConnect=0;portConstraint=eastwest;newEdgeStyle={&quot;edgeStyle&quot;:&quot;elbowEdgeStyle&quot;,&quot;elbow&quot;:&quot;vertical&quot;,&quot;curved&quot;:0,&quot;rounded&quot;:0};" vertex="1" parent="1">
          <mxGeometry x="1460" y="630" width="50" height="100" as="geometry" />
        </mxCell>
        <mxCell id="bD8jC1XGivE6zrcXYBOk-58" value="2" style="text;html=1;strokeColor=none;fillColor=none;align=center;verticalAlign=middle;whiteSpace=wrap;rounded=0;fontSize=12;fontFamily=Helvetica;fontColor=default;" vertex="1" parent="1">
          <mxGeometry x="120" y="850" width="60" height="30" as="geometry" />
        </mxCell>
        <mxCell id="bD8jC1XGivE6zrcXYBOk-59" value="1" style="text;html=1;strokeColor=none;fillColor=none;align=center;verticalAlign=middle;whiteSpace=wrap;rounded=0;fontSize=12;fontFamily=Helvetica;fontColor=default;" vertex="1" parent="1">
          <mxGeometry x="230" y="850" width="60" height="30" as="geometry" />
        </mxCell>
        <mxCell id="bD8jC1XGivE6zrcXYBOk-60" value="2" style="text;html=1;strokeColor=none;fillColor=none;align=center;verticalAlign=middle;whiteSpace=wrap;rounded=0;fontSize=12;fontFamily=Helvetica;fontColor=default;" vertex="1" parent="1">
          <mxGeometry x="1110" y="850" width="60" height="30" as="geometry" />
        </mxCell>
        <mxCell id="bD8jC1XGivE6zrcXYBOk-63" value="2" style="text;html=1;strokeColor=none;fillColor=none;align=center;verticalAlign=middle;whiteSpace=wrap;rounded=0;fontSize=12;fontFamily=Helvetica;fontColor=default;" vertex="1" parent="1">
          <mxGeometry x="1580" y="850" width="60" height="30" as="geometry" />
        </mxCell>
        <mxCell id="bD8jC1XGivE6zrcXYBOk-64" value="3" style="text;html=1;strokeColor=none;fillColor=none;align=center;verticalAlign=middle;whiteSpace=wrap;rounded=0;fontSize=12;fontFamily=Helvetica;fontColor=default;" vertex="1" parent="1">
          <mxGeometry x="1680" y="850" width="60" height="30" as="geometry" />
        </mxCell>
        <mxCell id="bD8jC1XGivE6zrcXYBOk-65" value="2" style="text;html=1;strokeColor=none;fillColor=none;align=center;verticalAlign=middle;whiteSpace=wrap;rounded=0;fontSize=12;fontFamily=Helvetica;fontColor=default;" vertex="1" parent="1">
          <mxGeometry x="1770" y="850" width="60" height="30" as="geometry" />
        </mxCell>
      </root>
    </mxGraphModel>
  </diagram>
</mxfile>
